<?xml version="1.0" standalone="no"?>
<!DOCTYPE svg PUBLIC "-//W3C//DTD SVG 20010904//EN"
 "http://www.w3.org/TR/2001/REC-SVG-20010904/DTD/svg10.dtd">
<svg version="1.0" xmlns="http://www.w3.org/2000/svg"
 width="512.000000pt" height="512.000000pt" viewBox="0 0 512.000000 512.000000"
 preserveAspectRatio="xMidYMid meet">

<g transform="translate(0.000000,512.000000) scale(0.100000,-0.100000)"
fill="#000000" stroke="none">
<path d="M2448 5104 c-68 -16 -129 -46 -221 -108 -59 -40 -76 -46 -120 -46
-140 -1 -258 -36 -330 -99 -73 -65 -110 -192 -78 -269 9 -22 84 -96 215 -214
111 -99 213 -188 228 -197 24 -15 68 -17 420 -17 348 1 397 3 418 17 14 9 115
98 226 197 131 118 206 192 215 214 32 77 -5 204 -78 269 -72 63 -190 98 -330
99 -44 0 -61 6 -120 46 -171 115 -294 145 -445 108z"/>
<path d="M2372 4008 c-165 -6 -187 -9 -224 -30 -97 -54 -104 -194 -13 -254 23
-15 68 -17 418 -18 434 -2 428 -3 472 61 48 72 24 168 -53 209 -34 18 -65 23
-169 28 -223 11 -244 11 -431 4z"/>
<path d="M2376 3589 c-762 -43 -1310 -370 -1596 -953 -180 -368 -272 -858
-257 -1366 9 -281 44 -461 126 -636 182 -388 543 -574 1207 -624 180 -13 1226
-13 1409 0 659 48 1024 237 1206 624 82 175 117 355 126 636 9 305 -25 640
-92 909 -202 800 -701 1258 -1510 1385 -86 13 -422 38 -465 34 -8 0 -78 -5
-154 -9z m286 -685 c53 -34 78 -88 78 -169 0 -44 4 -67 13 -69 144 -42 236
-84 302 -138 38 -32 85 -116 85 -153 0 -76 -61 -162 -135 -191 -56 -21 -112
-13 -180 25 -108 61 -254 89 -364 70 -55 -10 -72 -18 -103 -49 -31 -31 -38
-45 -38 -77 0 -82 53 -113 321 -193 96 -28 203 -63 239 -77 162 -65 260 -144
316 -259 33 -66 38 -84 42 -172 5 -117 -7 -186 -52 -278 -72 -149 -208 -252
-403 -304 l-43 -11 0 -89 c0 -99 -9 -132 -48 -174 -68 -72 -183 -76 -256 -8
-43 41 -56 81 -56 176 0 93 4 88 -75 102 -101 18 -251 82 -329 142 -67 50 -96
107 -96 186 0 84 29 141 93 180 67 41 129 45 187 12 167 -96 271 -129 415
-130 88 -1 106 2 150 24 38 19 55 35 73 70 30 60 28 76 -15 120 -43 42 -103
67 -333 135 -183 55 -251 83 -342 142 -142 93 -208 218 -208 394 0 131 43 239
133 336 72 77 150 125 259 162 l83 28 5 74 c6 84 25 127 71 160 63 44 145 46
211 3z"/>
<path d="M2517 2792 c-14 -15 -17 -40 -17 -125 0 -103 -1 -107 -22 -111 -181
-35 -267 -73 -347 -153 -78 -78 -104 -145 -105 -268 0 -72 4 -99 21 -138 61
-132 154 -188 472 -284 258 -77 338 -118 389 -197 22 -35 27 -52 27 -111 -1
-83 -23 -132 -85 -189 -66 -60 -119 -78 -241 -84 -158 -7 -307 31 -448 113
-77 45 -107 47 -139 9 -36 -41 -26 -98 25 -142 73 -64 226 -123 354 -137 107
-11 99 1 99 -146 0 -116 2 -131 20 -149 11 -11 29 -20 40 -20 11 0 29 9 40 20
18 18 20 33 20 155 0 135 0 135 23 135 84 0 268 73 337 133 128 111 177 317
109 461 -55 117 -169 183 -479 276 -113 34 -230 75 -261 92 -132 69 -180 162
-145 280 21 73 71 128 148 164 58 26 72 29 178 29 134 0 204 -16 328 -75 48
-23 89 -37 100 -33 33 12 52 36 52 69 0 73 -154 155 -352 189 l-38 6 0 108 c0
92 -3 110 -18 124 -24 22 -65 21 -85 -1z"/>
</g>
</svg>
