<?xml version="1.0" standalone="no"?>
<!DOCTYPE svg PUBLIC "-//W3C//DTD SVG 20010904//EN"
 "http://www.w3.org/TR/2001/REC-SVG-20010904/DTD/svg10.dtd">
<svg version="1.0" xmlns="http://www.w3.org/2000/svg"
 width="1000.000000pt" height="1000.000000pt" viewBox="0 0 500.000000 500.000000"
 preserveAspectRatio="xMidYMid meet">

<g transform="translate(0.000000,500.000000) scale(0.100000,-0.100000)"
fill="#000000" stroke="none">
<path d="M3075 3717 c-41 -85 -201 -250 -425 -436 -252 -210 -389 -348 -431
-435 -29 -59 -34 -81 -37 -160 -3 -71 1 -104 16 -151 19 -56 20 -58 21 -24 4
132 110 244 441 466 254 171 356 253 423 342 103 138 115 263 42 444 -11 27
-18 21 -50 -46z"/>
<path d="M2165 3419 c-84 -17 -208 -83 -254 -135 -38 -43 -61 -95 -61 -136 0
-10 -4 -18 -9 -18 -5 0 -23 -14 -40 -31 -40 -40 -42 -89 -5 -143 l27 -39 12
37 c17 49 41 75 90 97 97 45 230 0 253 -85 4 -14 12 -25 17 -25 18 1 426 381
422 392 -2 7 -38 30 -81 52 -76 39 -78 39 -199 42 -67 1 -144 -3 -172 -8z
m-129 -133 c-14 -25 -26 -55 -27 -68 0 -13 -3 -18 -6 -11 -3 10 -9 10 -23 1
-40 -25 -30 4 21 61 30 33 56 61 57 61 2 0 -8 -20 -22 -44z"/>
<path d="M1865 1815 c-72 -163 -145 -334 -145 -339 0 -3 6 -6 13 -6 6 0 22 24
33 53 l22 52 86 3 87 3 25 -56 c22 -48 29 -55 55 -55 16 0 29 2 29 4 0 5 -157
362 -168 382 -9 16 -14 10 -37 -41z m49 -114 c20 -45 36 -87 36 -92 0 -5 -34
-9 -76 -9 -42 0 -74 4 -72 9 22 58 73 179 75 177 1 -1 18 -39 37 -85z"/>
<path d="M2550 1861 c-71 -23 -130 -72 -149 -124 -14 -36 -14 -118 0 -154 14
-38 46 -71 94 -96 68 -35 235 -25 235 14 0 7 -7 8 -17 4 -57 -25 -111 -28
-157 -11 -68 26 -98 70 -103 154 -4 56 -1 74 19 112 39 76 117 102 202 66 31
-13 35 -13 39 4 3 11 -2 21 -11 25 -28 10 -126 15 -152 6z"/>
<path d="M2899 1854 c-96 -29 -154 -139 -129 -248 13 -59 33 -90 74 -115 64
-38 156 -33 224 12 93 63 110 238 30 314 -56 52 -115 63 -199 37z m123 -29
c64 -26 87 -188 38 -275 -51 -90 -159 -91 -208 -3 -39 71 -31 194 16 247 45
51 87 59 154 31z"/>
<path d="M1480 1665 l0 -195 25 0 c25 0 25 0 25 95 l0 94 63 3 c34 2 62 8 62
13 0 6 -28 11 -62 13 l-63 3 0 69 c0 82 5 86 111 75 59 -6 69 -5 69 9 0 14
-16 16 -115 16 l-115 0 0 -195z"/>
<path d="M2130 1665 l0 -195 110 0 c105 0 110 1 110 21 0 15 -5 19 -17 15 -49
-13 -86 -17 -113 -11 l-30 7 0 179 0 179 -30 0 -30 0 0 -195z"/>
<path d="M3230 1665 c0 -120 4 -195 10 -195 6 0 11 65 12 160 l3 160 117 -148
c65 -81 124 -156 132 -167 14 -18 15 0 16 183 0 124 -4 202 -10 202 -5 0 -11
-59 -12 -142 l-3 -142 -112 142 c-155 196 -153 197 -153 -53z"/>
<path d="M2611 1039 c-96 -29 -152 -104 -152 -203 0 -100 52 -163 155 -186 69
-15 176 0 176 24 0 11 -9 10 -45 -2 -91 -30 -189 13 -215 94 -7 20 -10 65 -8
100 8 129 104 189 222 140 34 -14 36 -14 36 4 0 10 -4 21 -9 24 -19 12 -127
15 -160 5z"/>
<path d="M1797 1020 c4 -16 10 -18 32 -13 14 4 40 7 56 8 l30 0 3 -182 2 -183
25 0 25 0 2 183 3 182 30 -1 c17 0 43 -2 60 -5 22 -3 30 0 33 14 3 16 -9 17
-151 17 -150 0 -155 -1 -150 -20z"/>
<path d="M2160 845 l0 -195 114 0 c96 0 115 3 120 16 4 9 5 18 3 20 -2 2 -41
-1 -87 -6 -45 -5 -87 -7 -91 -4 -5 3 -9 41 -9 84 l0 79 68 3 c37 2 67 8 67 13
0 6 -30 11 -67 13 l-68 3 0 69 c0 67 1 70 26 76 15 4 55 3 90 -3 59 -8 64 -8
64 9 0 16 -11 18 -115 18 l-115 0 0 -195z"/>
<path d="M2870 845 l0 -195 25 0 c25 0 25 0 25 95 l0 95 90 0 90 0 0 -95 0
-95 30 0 30 0 0 195 0 195 -30 0 -30 0 0 -85 0 -85 -90 0 -90 0 0 85 c0 84 0
85 -25 85 l-25 0 0 -195z"/>
</g>
</svg>
