<svg width="45" height="26" viewBox="0 0 25 16" fill="none" xmlns="http://www.w3.org/2000/svg">
<path d="M13.0033 6.20001H11.8033C11.3063 6.20001 10.9033 6.60296 10.9033 7.10001V7.10001C10.9033 7.59707 11.3063 8.00001 11.8033 8.00001H12.4033C12.9004 8.00001 13.3033 8.40296 13.3033 8.90001V8.90001C13.3033 9.39707 12.9004 9.80001 12.4033 9.80001H11.2033" stroke="#999999" stroke-width="1.5" stroke-linecap="round" stroke-linejoin="round"/>
<rect x="0.853394" y="1.54999" width="22.5" height="12.9" rx="3.25" stroke="#999999" stroke-width="1.5"/>
<rect x="8.05347" y="3.95001" width="8.1" height="8.1" rx="4.05" stroke="#999999" stroke-width="1.5"/>
<rect x="18.8534" y="6.95001" width="2.1" height="2.1" rx="1.05" stroke="#999999" stroke-width="1.5"/>
<rect x="3.25342" y="6.95001" width="2.1" height="2.1" rx="1.05" stroke="#999999" stroke-width="1.5"/>
<path d="M12.1034 5.59998L12.1034 6.19998" stroke="#999999" stroke-width="1.5" stroke-linecap="round"/>
<path d="M12.1034 9.79999L12.1034 10.4" stroke="#999999" stroke-width="1.5" stroke-linecap="round"/>
</svg>
